<svg id="l_d_455" xmlns="http://www.w3.org/2000/svg" xmlns:xlink="http://www.w3.org/1999/xlink" viewBox="0 0 45 45" width="45" height="45" preserveAspectRatio="xMidYMid meet" style="width: 100%; height: 100%; transform: translate3d(0px, 0px, 0px); content-visibility: visible;">
                                                            <defs id="l_d_456">
                                                               <clipPath id="__lottie_element_168">
                                                                  <rect id="l_d_459" width="45" height="45" x="0" y="0"></rect>
                                                               </clipPath>
                                                               <clipPath id="__lottie_element_174">
                                                                  <path id="l_d_484" d="M0,0 L80,0 L80,80 L0,80z"></path>
                                                               </clipPath>
                                                               <clipPath id="__lottie_element_181">
                                                                  <path id="l_d_497" d="M0,0 L80,0 L80,80 L0,80z"></path>
                                                               </clipPath>
                                                            </defs>
                                                            <g id="l_d_457" clip-path="url(#__lottie_element_168)">
                                                               <g id="l_d_494" clip-path="url(#__lottie_element_181)" transform="matrix(1,0,0,1,-25,-17.625)" opacity="1" style="display: block;">
                                                                  <g id="l_d_500" transform="matrix(1,0,0,1,0,0)" opacity="1" style="display: block;">
                                                                     <g id="l_d_504" opacity="1" transform="matrix(1,0,0,1,0,0)">
                                                                        <g id="l_d_505" opacity="1" transform="matrix(1,0,0,1,40,35)">
                                                                           <path id="l_d_506" stroke-linecap="butt" stroke-linejoin="miter" fill-opacity="0" stroke-miterlimit="4" stroke="rgb(34,34,34)" stroke-opacity="1" stroke-width="2" d=" M0,-9 C4.418000221252441,-9 8,-5.418000221252441 8,-1 C8,-1 8,9 8,9 C8,9 0,9 0,9 C0,9 0,-5.875 0,-9z M-0.08299999684095383,1 C-0.08299999684095383,1 8,1 8,1 M0,-9.925999641418457 C0,-9.925999641418457 0,-7.125 0,-7.125 C0,-7.125 0,9 0,9"></path>
                                                                        </g>
                                                                     </g>
                                                                  </g>
                                                               </g>
                                                               <g id="l_d_481" clip-path="url(#__lottie_element_174)" transform="matrix(-1,0,0,1,55,-17.625)" opacity="1" style="display: block;">
                                                                  <g id="l_d_487" transform="matrix(1,0,0,1,0,0)" opacity="1" style="display: block;">
                                                                     <g id="l_d_491" opacity="1" transform="matrix(1,0,0,1,0,0)">
                                                                        <g id="l_d_492" opacity="1" transform="matrix(1,0,0,1,40,35)">
                                                                           <path id="l_d_493" stroke-linecap="butt" stroke-linejoin="miter" fill-opacity="0" stroke-miterlimit="4" stroke="rgb(34,34,34)" stroke-opacity="1" stroke-width="2" d=" M0,-9 C4.418000221252441,-9 8,-5.418000221252441 8,-1 C8,-1 8,9 8,9 C8,9 0,9 0,9 C0,9 0,-5.875 0,-9z M-0.08299999684095383,1 C-0.08299999684095383,1 8,1 8,1 M0,-9.925999641418457 C0,-9.925999641418457 0,-7.125 0,-7.125 C0,-7.125 0,9 0,9"></path>
                                                                        </g>
                                                                     </g>
                                                                  </g>
                                                               </g>
                                                               <g id="l_d_460" transform="matrix(1,0,0,1,-25,-17.625)" opacity="1" style="display: block;">
                                                                  <g id="l_d_464" opacity="1" transform="matrix(1,0,0,1,0,0)">
                                                                     <g id="l_d_465" opacity="1" transform="matrix(1,0,0,1,50,49)">
                                                                        <path id="l_d_466" stroke-linecap="butt" stroke-linejoin="miter" fill-opacity="0" stroke-miterlimit="4" stroke="rgb(34,34,34)" stroke-opacity="1" stroke-width="2" d=" M0,-5 C0,-5 0,5 0,5"></path>
                                                                     </g>
                                                                     <g id="l_d_467" opacity="1" transform="matrix(1,0,0,1,46,49)">
                                                                        <path id="l_d_468" stroke-linecap="butt" stroke-linejoin="miter" fill-opacity="0" stroke-miterlimit="4" stroke="rgb(34,34,34)" stroke-opacity="1" stroke-width="2" d=" M0,-5 C0,-5 0,5 0,5"></path>
                                                                     </g>
                                                                     <g id="l_d_469" opacity="1" transform="matrix(1,0,0,1,42,49)">
                                                                        <path id="l_d_470" stroke-linecap="butt" stroke-linejoin="miter" fill-opacity="0" stroke-miterlimit="4" stroke="rgb(34,34,34)" stroke-opacity="1" stroke-width="2" d=" M0,-5 C0,-5 0,5 0,5"></path>
                                                                     </g>
                                                                     <g id="l_d_471" opacity="1" transform="matrix(1,0,0,1,38,49)">
                                                                        <path id="l_d_472" stroke-linecap="butt" stroke-linejoin="miter" fill-opacity="0" stroke-miterlimit="4" stroke="rgb(34,34,34)" stroke-opacity="1" stroke-width="2" d=" M0,-5 C0,-5 0,5 0,5"></path>
                                                                     </g>
                                                                     <g id="l_d_473" opacity="1" transform="matrix(1,0,0,1,34,49)">
                                                                        <path id="l_d_474" stroke-linecap="butt" stroke-linejoin="miter" fill-opacity="0" stroke-miterlimit="4" stroke="rgb(34,34,34)" stroke-opacity="1" stroke-width="2" d=" M0,-5 C0,-5 0,5 0,5"></path>
                                                                     </g>
                                                                     <g id="l_d_475" opacity="1" transform="matrix(1,0,0,1,30,49)">
                                                                        <path id="l_d_476" stroke-linecap="butt" stroke-linejoin="miter" fill-opacity="0" stroke-miterlimit="4" stroke="rgb(34,34,34)" stroke-opacity="1" stroke-width="2" d=" M0,-5 C0,-5 0,5 0,5"></path>
                                                                     </g>
                                                                     <g id="l_d_477" opacity="1" transform="matrix(1,0,0,1,40,54)">
                                                                        <path id="l_d_478" stroke-linecap="butt" stroke-linejoin="miter" fill-opacity="0" stroke-miterlimit="4" stroke="rgb(34,34,34)" stroke-opacity="1" stroke-width="2" d=" M-13,0 C-13,0 13,0 13,0"></path>
                                                                     </g>
                                                                     <g id="l_d_479" opacity="1" transform="matrix(1,0,0,1,40,44)">
                                                                        <path id="l_d_480" stroke-linecap="butt" stroke-linejoin="miter" fill-opacity="0" stroke-miterlimit="4" stroke="rgb(34,34,34)" stroke-opacity="1" stroke-width="2" d=" M-13,0 C-13,0 13,0 13,0"></path>
                                                                     </g>
                                                                  </g>
                                                               </g>
                                                            </g>
                                                         </svg>
