<svg id="l_d_1032" xmlns="http://www.w3.org/2000/svg" xmlns:xlink="http://www.w3.org/1999/xlink" viewBox="0 0 45 45" width="45" height="45" preserveAspectRatio="xMidYMid meet" style="width: 100%; height: 100%; transform: translate3d(0px, 0px, 0px); content-visibility: visible;">
                                                            <defs id="l_d_1033">
                                                               <clipPath id="__lottie_element_414">
                                                                  <rect id="l_d_1036" width="45" height="45" x="0" y="0"></rect>
                                                               </clipPath>
                                                               <clipPath id="__lottie_element_456">
                                                                  <path id="l_d_1131" d="M0,0 L80,0 L80,80 L0,80z"></path>
                                                               </clipPath>
                                                               <g id="__lottie_element_459">
                                                                  <g id="l_d_1134" style="display: none;">
                                                                     <g id="l_d_1139">
                                                                        <path id="l_d_1140"></path>
                                                                     </g>
                                                                  </g>
                                                               </g>
                                                               <mask id="__lottie_element_459_1" mask-type="alpha">
                                                                  <use id="l_d_1148" xlink:href="#__lottie_element_459"></use>
                                                               </mask>
                                                               <clipPath id="__lottie_element_466">
                                                                  <path id="l_d_1151" fill="#ffffff" clip-rule="nonzero" d=" M41.37099838256836,34.875 C41.37099838256836,34.875 35,34.875 35,34.875 C35,34.875 35,57.104000091552734 35,57.104000091552734 C35,57.104000091552734 41.37099838256836,57.104000091552734 41.37099838256836,57.104000091552734 C41.37099838256836,57.104000091552734 41.37099838256836,34.875 41.37099838256836,34.875" fill-opacity="1"></path>
                                                               </clipPath>
                                                               <clipPath id="__lottie_element_469">
                                                                  <path id="l_d_1160" d="M0,0 L80,0 L80,80 L0,80z"></path>
                                                               </clipPath>
                                                               <g id="__lottie_element_472">
                                                                  <g id="l_d_1163" style="display: none;">
                                                                     <g id="l_d_1168">
                                                                        <path id="l_d_1169"></path>
                                                                     </g>
                                                                  </g>
                                                               </g>
                                                               <mask id="__lottie_element_472_1" mask-type="alpha">
                                                                  <use id="l_d_1177" xlink:href="#__lottie_element_472"></use>
                                                               </mask>
                                                               <clipPath id="__lottie_element_479">
                                                                  <path id="l_d_1180" fill="#ffffff" clip-rule="nonzero" d=" M41.37099838256836,34.875 C41.37099838256836,34.875 35,34.875 35,34.875 C35,34.875 35,57.104000091552734 35,57.104000091552734 C35,57.104000091552734 41.37099838256836,57.104000091552734 41.37099838256836,57.104000091552734 C41.37099838256836,57.104000091552734 41.37099838256836,34.875 41.37099838256836,34.875" fill-opacity="1"></path>
                                                               </clipPath>
                                                               <clipPath id="__lottie_element_482">
                                                                  <path id="l_d_1189" d="M0,0 L80,0 L80,80 L0,80z"></path>
                                                               </clipPath>
                                                               <g id="__lottie_element_485">
                                                                  <g id="l_d_1192" style="display: none;">
                                                                     <g id="l_d_1197">
                                                                        <path id="l_d_1198"></path>
                                                                     </g>
                                                                  </g>
                                                               </g>
                                                               <mask id="__lottie_element_485_1" mask-type="alpha">
                                                                  <use id="l_d_1206" xlink:href="#__lottie_element_485"></use>
                                                               </mask>
                                                               <clipPath id="__lottie_element_492">
                                                                  <path id="l_d_1209" fill="#ffffff" clip-rule="nonzero" d=" M41.37099838256836,34.875 C41.37099838256836,34.875 35,34.875 35,34.875 C35,34.875 35,57.104000091552734 35,57.104000091552734 C35,57.104000091552734 41.37099838256836,57.104000091552734 41.37099838256836,57.104000091552734 C41.37099838256836,57.104000091552734 41.37099838256836,34.875 41.37099838256836,34.875" fill-opacity="1"></path>
                                                               </clipPath>
                                                            </defs>
                                                            <g id="l_d_1034" clip-path="url(#__lottie_element_414)">
                                                               <g id="l_d_1215" transform="matrix(1,0,0,1,-26,-17.25)" opacity="1" style="display: block;">
                                                                  <g id="l_d_1219" opacity="1" transform="matrix(1,0,0,1,36.5,40.5)">
                                                                     <path id="l_d_1220" stroke-linecap="butt" stroke-linejoin="miter" fill-opacity="0" stroke-miterlimit="4" stroke="rgb(34,34,34)" stroke-opacity="1" stroke-width="2" d=" M7.5,-10.5 C7.5,-10.5 7.5,-12.5 7.5,-12.5 C7.5,-13.604999542236328 6.605000019073486,-14.5 5.5,-14.5 C5.5,-14.5 -5.5,-14.5 -5.5,-14.5 C-6.605000019073486,-14.5 -7.5,-13.604999542236328 -7.5,-12.5 C-7.5,-12.5 -7.5,14.5 -7.5,14.5 C-7.5,14.5 -7.5,14.5 -7.5,14.5"></path>
                                                                  </g>
                                                                  <g id="l_d_1221" opacity="1" transform="matrix(1,0,0,1,44,32)">
                                                                     <path id="l_d_1222" stroke-linecap="butt" stroke-linejoin="round" fill-opacity="0" stroke="rgb(34,34,34)" stroke-opacity="1" stroke-width="2" d=" M6,-2 C6,-2 -6,-2 -6,-2 C-6,-2 -6,2 -6,2 C-6,2 6,2 6,2 C6,2 6,-2 6,-2z"></path>
                                                                  </g>
                                                                  <g id="l_d_1223" opacity="1" transform="matrix(1,0,0,1,44,34)">
                                                                     <path id="l_d_1224" stroke-linecap="butt" stroke-linejoin="round" fill-opacity="0" stroke="rgb(34,34,34)" stroke-opacity="1" stroke-width="2" d=" M-9,0 C-9,0 9,0 9,0"></path>
                                                                  </g>
                                                               </g>
                                                               <g id="l_d_1186" clip-path="url(#__lottie_element_482)" transform="matrix(1,0,0,1,-26,-17.25)" opacity="1" style="display: block;">
                                                                  <g id="l_d_1207" clip-path="url(#__lottie_element_492)" transform="matrix(1,0,0,1,0,0)" opacity="1" style="display: block;">
                                                                     <g id="l_d_1212" opacity="1" transform="matrix(1,0,0,1,0,0)">
                                                                        <g id="l_d_1213" opacity="1" transform="matrix(1,0,0,1,39,54)">
                                                                           <path id="l_d_1214" fill="rgb(34,34,34)" fill-opacity="1" d=" M5,-17 C4.447999954223633,-17 4,-16.552000045776367 4,-16 C4,-15.447999954223633 4.447999954223633,-15 5,-15 C5.552000045776367,-15 6,-15.447999954223633 6,-16 C6,-16.552000045776367 5.552000045776367,-17 5,-17z M0,-17 C-0.5519999861717224,-17 -1,-16.552000045776367 -1,-16 C-1,-15.447999954223633 -0.5519999861717224,-15 0,-15 C0.5519999861717224,-15 1,-15.447999954223633 1,-16 C1,-16.552000045776367 0.5519999861717224,-17 0,-17z M10,-17 C9.447999954223633,-17 9,-16.552000045776367 9,-16 C9,-15.447999954223633 9.447999954223633,-15 10,-15 C10.552000045776367,-15 11,-15.447999954223633 11,-16 C11,-16.552000045776367 10.552000045776367,-17 10,-17z M5,-13 C4.447999954223633,-13 4,-12.552000045776367 4,-12 C4,-11.447999954223633 4.447999954223633,-11 5,-11 C5.552000045776367,-11 6,-11.447999954223633 6,-12 C6,-12.552000045776367 5.552000045776367,-13 5,-13z M10,-13 C9.447999954223633,-13 9,-12.552000045776367 9,-12 C9,-11.447999954223633 9.447999954223633,-11 10,-11 C10.552000045776367,-11 11,-11.447999954223633 11,-12 C11,-12.552000045776367 10.552000045776367,-13 10,-13z M0,-13 C-0.5519999861717224,-13 -1,-12.552000045776367 -1,-12 C-1,-11.447999954223633 -0.5519999861717224,-11 0,-11 C0.5519999861717224,-11 1,-11.447999954223633 1,-12 C1,-12.552000045776367 0.5519999861717224,-13 0,-13z M5,-9 C4.447999954223633,-9 4,-8.552000045776367 4,-8 C4,-7.447999954223633 4.447999954223633,-7 5,-7 C5.552000045776367,-7 6,-7.447999954223633 6,-8 C6,-8.552000045776367 5.552000045776367,-9 5,-9z M10,-9 C9.447999954223633,-9 9,-8.552000045776367 9,-8 C9,-7.447999954223633 9.447999954223633,-7 10,-7 C10.552000045776367,-7 11,-7.447999954223633 11,-8 C11,-8.552000045776367 10.552000045776367,-9 10,-9z M0,-9 C-0.5519999861717224,-9 -1,-8.552000045776367 -1,-8 C-1,-7.447999954223633 -0.5519999861717224,-7 0,-7 C0.5519999861717224,-7 1,-7.447999954223633 1,-8 C1,-8.552000045776367 0.5519999861717224,-9 0,-9z M5,-5 C4.447999954223633,-5 4,-4.552000045776367 4,-4 C4,-3.447999954223633 4.447999954223633,-3 5,-3 C5.552000045776367,-3 6,-3.447999954223633 6,-4 C6,-4.552000045776367 5.552000045776367,-5 5,-5z M10,-5 C9.447999954223633,-5 9,-4.552000045776367 9,-4 C9,-3.447999954223633 9.447999954223633,-3 10,-3 C10.552000045776367,-3 11,-3.447999954223633 11,-4 C11,-4.552000045776367 10.552000045776367,-5 10,-5z M0,-5 C-0.5519999861717224,-5 -1,-4.552000045776367 -1,-4 C-1,-3.447999954223633 -0.5519999861717224,-3 0,-3 C0.5519999861717224,-3 1,-3.447999954223633 1,-4 C1,-4.552000045776367 0.5519999861717224,-5 0,-5z M5,-1 C4.447999954223633,-1 4,-0.5519999861717224 4,0 C4,0.5519999861717224 4.447999954223633,1 5,1 C5.552000045776367,1 6,0.5519999861717224 6,0 C6,-0.5519999861717224 5.552000045776367,-1 5,-1z M10,-1 C9.447999954223633,-1 9,-0.5519999861717224 9,0 C9,0.5519999861717224 9.447999954223633,1 10,1 C10.552000045776367,1 11,0.5519999861717224 11,0 C11,-0.5519999861717224 10.552000045776367,-1 10,-1z M0,-1 C-0.5519999861717224,-1 -1,-0.5519999861717224 -1,0 C-1,0.5519999861717224 -0.5519999861717224,1 0,1 C0.5519999861717224,1 1,0.5519999861717224 1,0 C1,-0.5519999861717224 0.5519999861717224,-1 0,-1z"></path>
                                                                        </g>
                                                                     </g>
                                                                  </g>
                                                                  <g id="l_d_1200" mask="url(#__lottie_element_485_1)" style="display: block;">
                                                                     <g id="l_d_1199" transform="matrix(1,0,0,1,40,30)" opacity="1">
                                                                        <g id="l_d_1203" opacity="1" transform="matrix(1,0,0,1,0,0)">
                                                                           <path id="l_d_1204" stroke-linecap="round" stroke-linejoin="miter" fill-opacity="0" stroke-miterlimit="4" stroke-dasharray=" 0.1 4" stroke-dashoffset="6" stroke="rgb(34,34,34)" stroke-opacity="1" stroke-width="2" d=" M-1.00600004196167,-29.00200080871582 C-1.00600004196167,-29.00200080871582 -1.0119999647140503,30.87299919128418 -1.0119999647140503,30.87299919128418"></path>
                                                                        </g>
                                                                     </g>
                                                                  </g>
                                                               </g>
                                                               <g id="l_d_1157" clip-path="url(#__lottie_element_469)" transform="matrix(1,0,0,1,-21,-17.25)" opacity="1" style="display: block;">
                                                                  <g id="l_d_1178" clip-path="url(#__lottie_element_479)" transform="matrix(1,0,0,1,0,0)" opacity="1" style="display: block;">
                                                                     <g id="l_d_1183" opacity="1" transform="matrix(1,0,0,1,0,0)">
                                                                        <g id="l_d_1184" opacity="1" transform="matrix(1,0,0,1,39,54)">
                                                                           <path id="l_d_1185" fill="rgb(34,34,34)" fill-opacity="1" d=" M5,-17 C4.447999954223633,-17 4,-16.552000045776367 4,-16 C4,-15.447999954223633 4.447999954223633,-15 5,-15 C5.552000045776367,-15 6,-15.447999954223633 6,-16 C6,-16.552000045776367 5.552000045776367,-17 5,-17z M0,-17 C-0.5519999861717224,-17 -1,-16.552000045776367 -1,-16 C-1,-15.447999954223633 -0.5519999861717224,-15 0,-15 C0.5519999861717224,-15 1,-15.447999954223633 1,-16 C1,-16.552000045776367 0.5519999861717224,-17 0,-17z M10,-17 C9.447999954223633,-17 9,-16.552000045776367 9,-16 C9,-15.447999954223633 9.447999954223633,-15 10,-15 C10.552000045776367,-15 11,-15.447999954223633 11,-16 C11,-16.552000045776367 10.552000045776367,-17 10,-17z M5,-13 C4.447999954223633,-13 4,-12.552000045776367 4,-12 C4,-11.447999954223633 4.447999954223633,-11 5,-11 C5.552000045776367,-11 6,-11.447999954223633 6,-12 C6,-12.552000045776367 5.552000045776367,-13 5,-13z M10,-13 C9.447999954223633,-13 9,-12.552000045776367 9,-12 C9,-11.447999954223633 9.447999954223633,-11 10,-11 C10.552000045776367,-11 11,-11.447999954223633 11,-12 C11,-12.552000045776367 10.552000045776367,-13 10,-13z M0,-13 C-0.5519999861717224,-13 -1,-12.552000045776367 -1,-12 C-1,-11.447999954223633 -0.5519999861717224,-11 0,-11 C0.5519999861717224,-11 1,-11.447999954223633 1,-12 C1,-12.552000045776367 0.5519999861717224,-13 0,-13z M5,-9 C4.447999954223633,-9 4,-8.552000045776367 4,-8 C4,-7.447999954223633 4.447999954223633,-7 5,-7 C5.552000045776367,-7 6,-7.447999954223633 6,-8 C6,-8.552000045776367 5.552000045776367,-9 5,-9z M10,-9 C9.447999954223633,-9 9,-8.552000045776367 9,-8 C9,-7.447999954223633 9.447999954223633,-7 10,-7 C10.552000045776367,-7 11,-7.447999954223633 11,-8 C11,-8.552000045776367 10.552000045776367,-9 10,-9z M0,-9 C-0.5519999861717224,-9 -1,-8.552000045776367 -1,-8 C-1,-7.447999954223633 -0.5519999861717224,-7 0,-7 C0.5519999861717224,-7 1,-7.447999954223633 1,-8 C1,-8.552000045776367 0.5519999861717224,-9 0,-9z M5,-5 C4.447999954223633,-5 4,-4.552000045776367 4,-4 C4,-3.447999954223633 4.447999954223633,-3 5,-3 C5.552000045776367,-3 6,-3.447999954223633 6,-4 C6,-4.552000045776367 5.552000045776367,-5 5,-5z M10,-5 C9.447999954223633,-5 9,-4.552000045776367 9,-4 C9,-3.447999954223633 9.447999954223633,-3 10,-3 C10.552000045776367,-3 11,-3.447999954223633 11,-4 C11,-4.552000045776367 10.552000045776367,-5 10,-5z M0,-5 C-0.5519999861717224,-5 -1,-4.552000045776367 -1,-4 C-1,-3.447999954223633 -0.5519999861717224,-3 0,-3 C0.5519999861717224,-3 1,-3.447999954223633 1,-4 C1,-4.552000045776367 0.5519999861717224,-5 0,-5z M5,-1 C4.447999954223633,-1 4,-0.5519999861717224 4,0 C4,0.5519999861717224 4.447999954223633,1 5,1 C5.552000045776367,1 6,0.5519999861717224 6,0 C6,-0.5519999861717224 5.552000045776367,-1 5,-1z M10,-1 C9.447999954223633,-1 9,-0.5519999861717224 9,0 C9,0.5519999861717224 9.447999954223633,1 10,1 C10.552000045776367,1 11,0.5519999861717224 11,0 C11,-0.5519999861717224 10.552000045776367,-1 10,-1z M0,-1 C-0.5519999861717224,-1 -1,-0.5519999861717224 -1,0 C-1,0.5519999861717224 -0.5519999861717224,1 0,1 C0.5519999861717224,1 1,0.5519999861717224 1,0 C1,-0.5519999861717224 0.5519999861717224,-1 0,-1z"></path>
                                                                        </g>
                                                                     </g>
                                                                  </g>
                                                                  <g id="l_d_1171" mask="url(#__lottie_element_472_1)" style="display: block;">
                                                                     <g id="l_d_1170" transform="matrix(1,0,0,1,40,30)" opacity="1">
                                                                        <g id="l_d_1174" opacity="1" transform="matrix(1,0,0,1,0,0)">
                                                                           <path id="l_d_1175" stroke-linecap="round" stroke-linejoin="miter" fill-opacity="0" stroke-miterlimit="4" stroke-dasharray=" 0.1 4" stroke-dashoffset="6" stroke="rgb(34,34,34)" stroke-opacity="1" stroke-width="2" d=" M-1.00600004196167,-29.00200080871582 C-1.00600004196167,-29.00200080871582 -1.0119999647140503,30.87299919128418 -1.0119999647140503,30.87299919128418"></path>
                                                                        </g>
                                                                     </g>
                                                                  </g>
                                                               </g>
                                                               <g id="l_d_1128" clip-path="url(#__lottie_element_456)" transform="matrix(1,0,0,1,-16.08300018310547,-17.25)" opacity="1" style="display: block;">
                                                                  <g id="l_d_1149" clip-path="url(#__lottie_element_466)" transform="matrix(1,0,0,1,0,0)" opacity="1" style="display: block;">
                                                                     <g id="l_d_1154" opacity="1" transform="matrix(1,0,0,1,0,0)">
                                                                        <g id="l_d_1155" opacity="1" transform="matrix(1,0,0,1,39,54)">
                                                                           <path id="l_d_1156" fill="rgb(34,34,34)" fill-opacity="1" d=" M5,-17 C4.447999954223633,-17 4,-16.552000045776367 4,-16 C4,-15.447999954223633 4.447999954223633,-15 5,-15 C5.552000045776367,-15 6,-15.447999954223633 6,-16 C6,-16.552000045776367 5.552000045776367,-17 5,-17z M0,-17 C-0.5519999861717224,-17 -1,-16.552000045776367 -1,-16 C-1,-15.447999954223633 -0.5519999861717224,-15 0,-15 C0.5519999861717224,-15 1,-15.447999954223633 1,-16 C1,-16.552000045776367 0.5519999861717224,-17 0,-17z M10,-17 C9.447999954223633,-17 9,-16.552000045776367 9,-16 C9,-15.447999954223633 9.447999954223633,-15 10,-15 C10.552000045776367,-15 11,-15.447999954223633 11,-16 C11,-16.552000045776367 10.552000045776367,-17 10,-17z M5,-13 C4.447999954223633,-13 4,-12.552000045776367 4,-12 C4,-11.447999954223633 4.447999954223633,-11 5,-11 C5.552000045776367,-11 6,-11.447999954223633 6,-12 C6,-12.552000045776367 5.552000045776367,-13 5,-13z M10,-13 C9.447999954223633,-13 9,-12.552000045776367 9,-12 C9,-11.447999954223633 9.447999954223633,-11 10,-11 C10.552000045776367,-11 11,-11.447999954223633 11,-12 C11,-12.552000045776367 10.552000045776367,-13 10,-13z M0,-13 C-0.5519999861717224,-13 -1,-12.552000045776367 -1,-12 C-1,-11.447999954223633 -0.5519999861717224,-11 0,-11 C0.5519999861717224,-11 1,-11.447999954223633 1,-12 C1,-12.552000045776367 0.5519999861717224,-13 0,-13z M5,-9 C4.447999954223633,-9 4,-8.552000045776367 4,-8 C4,-7.447999954223633 4.447999954223633,-7 5,-7 C5.552000045776367,-7 6,-7.447999954223633 6,-8 C6,-8.552000045776367 5.552000045776367,-9 5,-9z M10,-9 C9.447999954223633,-9 9,-8.552000045776367 9,-8 C9,-7.447999954223633 9.447999954223633,-7 10,-7 C10.552000045776367,-7 11,-7.447999954223633 11,-8 C11,-8.552000045776367 10.552000045776367,-9 10,-9z M0,-9 C-0.5519999861717224,-9 -1,-8.552000045776367 -1,-8 C-1,-7.447999954223633 -0.5519999861717224,-7 0,-7 C0.5519999861717224,-7 1,-7.447999954223633 1,-8 C1,-8.552000045776367 0.5519999861717224,-9 0,-9z M5,-5 C4.447999954223633,-5 4,-4.552000045776367 4,-4 C4,-3.447999954223633 4.447999954223633,-3 5,-3 C5.552000045776367,-3 6,-3.447999954223633 6,-4 C6,-4.552000045776367 5.552000045776367,-5 5,-5z M10,-5 C9.447999954223633,-5 9,-4.552000045776367 9,-4 C9,-3.447999954223633 9.447999954223633,-3 10,-3 C10.552000045776367,-3 11,-3.447999954223633 11,-4 C11,-4.552000045776367 10.552000045776367,-5 10,-5z M0,-5 C-0.5519999861717224,-5 -1,-4.552000045776367 -1,-4 C-1,-3.447999954223633 -0.5519999861717224,-3 0,-3 C0.5519999861717224,-3 1,-3.447999954223633 1,-4 C1,-4.552000045776367 0.5519999861717224,-5 0,-5z M5,-1 C4.447999954223633,-1 4,-0.5519999861717224 4,0 C4,0.5519999861717224 4.447999954223633,1 5,1 C5.552000045776367,1 6,0.5519999861717224 6,0 C6,-0.5519999861717224 5.552000045776367,-1 5,-1z M10,-1 C9.447999954223633,-1 9,-0.5519999861717224 9,0 C9,0.5519999861717224 9.447999954223633,1 10,1 C10.552000045776367,1 11,0.5519999861717224 11,0 C11,-0.5519999861717224 10.552000045776367,-1 10,-1z M0,-1 C-0.5519999861717224,-1 -1,-0.5519999861717224 -1,0 C-1,0.5519999861717224 -0.5519999861717224,1 0,1 C0.5519999861717224,1 1,0.5519999861717224 1,0 C1,-0.5519999861717224 0.5519999861717224,-1 0,-1z"></path>
                                                                        </g>
                                                                     </g>
                                                                  </g>
                                                                  <g id="l_d_1142" mask="url(#__lottie_element_459_1)" style="display: block;">
                                                                     <g id="l_d_1141" transform="matrix(1,0,0,1,40,30)" opacity="1">
                                                                        <g id="l_d_1145" opacity="1" transform="matrix(1,0,0,1,0,0)">
                                                                           <path id="l_d_1146" stroke-linecap="round" stroke-linejoin="miter" fill-opacity="0" stroke-miterlimit="4" stroke-dasharray=" 0.1 4" stroke-dashoffset="6" stroke="rgb(34,34,34)" stroke-opacity="1" stroke-width="2" d=" M-1.00600004196167,-29.00200080871582 C-1.00600004196167,-29.00200080871582 -1.0119999647140503,30.87299919128418 -1.0119999647140503,30.87299919128418"></path>
                                                                        </g>
                                                                     </g>
                                                                  </g>
                                                               </g>
                                                               <g id="l_d_1121" style="display: none;">
                                                                  <g id="l_d_1125">
                                                                     <g id="l_d_1126">
                                                                        <path id="l_d_1127"></path>
                                                                     </g>
                                                                  </g>
                                                               </g>
                                                               <g id="l_d_1114" style="display: none;">
                                                                  <g id="l_d_1118">
                                                                     <g id="l_d_1119">
                                                                        <path id="l_d_1120"></path>
                                                                     </g>
                                                                  </g>
                                                               </g>
                                                               <g id="l_d_1107" style="display: none;">
                                                                  <g id="l_d_1111">
                                                                     <g id="l_d_1112">
                                                                        <path id="l_d_1113"></path>
                                                                     </g>
                                                                  </g>
                                                               </g>
                                                               <g id="l_d_1100" style="display: none;">
                                                                  <g id="l_d_1104">
                                                                     <g id="l_d_1105">
                                                                        <path id="l_d_1106"></path>
                                                                     </g>
                                                                  </g>
                                                               </g>
                                                               <g id="l_d_1093" style="display: none;">
                                                                  <g id="l_d_1097">
                                                                     <g id="l_d_1098">
                                                                        <path id="l_d_1099"></path>
                                                                     </g>
                                                                  </g>
                                                               </g>
                                                               <g id="l_d_1086" style="display: none;">
                                                                  <g id="l_d_1090">
                                                                     <g id="l_d_1091">
                                                                        <path id="l_d_1092"></path>
                                                                     </g>
                                                                  </g>
                                                               </g>
                                                               <g id="l_d_1079" style="display: none;">
                                                                  <g id="l_d_1083">
                                                                     <g id="l_d_1084">
                                                                        <path id="l_d_1085"></path>
                                                                     </g>
                                                                  </g>
                                                               </g>
                                                               <g id="l_d_1072" style="display: none;">
                                                                  <g id="l_d_1076">
                                                                     <g id="l_d_1077">
                                                                        <path id="l_d_1078"></path>
                                                                     </g>
                                                                  </g>
                                                               </g>
                                                               <g id="l_d_1065" style="display: none;">
                                                                  <g id="l_d_1069">
                                                                     <g id="l_d_1070">
                                                                        <path id="l_d_1071"></path>
                                                                     </g>
                                                                  </g>
                                                               </g>
                                                               <g id="l_d_1058" style="display: none;">
                                                                  <g id="l_d_1062">
                                                                     <g id="l_d_1063">
                                                                        <path id="l_d_1064"></path>
                                                                     </g>
                                                                  </g>
                                                               </g>
                                                               <g id="l_d_1051" style="display: none;">
                                                                  <g id="l_d_1055">
                                                                     <g id="l_d_1056">
                                                                        <path id="l_d_1057"></path>
                                                                     </g>
                                                                  </g>
                                                               </g>
                                                               <g id="l_d_1044" style="display: none;">
                                                                  <g id="l_d_1048">
                                                                     <g id="l_d_1049">
                                                                        <path id="l_d_1050"></path>
                                                                     </g>
                                                                  </g>
                                                               </g>
                                                               <g id="l_d_1037" style="display: none;">
                                                                  <g id="l_d_1041">
                                                                     <g id="l_d_1042">
                                                                        <path id="l_d_1043"></path>
                                                                     </g>
                                                                  </g>
                                                               </g>
                                                            </g>
                                                         </svg>
