<svg id="l_d_1541" xmlns="http://www.w3.org/2000/svg" xmlns:xlink="http://www.w3.org/1999/xlink" viewBox="0 0 45 45" width="45" height="45" preserveAspectRatio="xMidYMid meet" style="width: 100%; height: 100%; transform: translate3d(0px, 0px, 0px); content-visibility: visible;">
                                                            <defs id="l_d_1542">
                                                               <clipPath id="__lottie_element_641">
                                                                  <rect id="l_d_1545" width="45" height="45" x="0" y="0"></rect>
                                                               </clipPath>
                                                            </defs>
                                                            <g id="l_d_1543" clip-path="url(#__lottie_element_641)">
                                                               <g id="l_d_1564" transform="matrix(1,0,0,1,-26.75,-17.75)" opacity="1" style="display: block;">
                                                                  <g id="l_d_1568" opacity="1" transform="matrix(1,0,0,1,40,44)">
                                                                     <path id="l_d_1569" stroke-linecap="butt" stroke-linejoin="miter" fill-opacity="0" stroke-miterlimit="4" stroke="rgb(34,34,34)" stroke-opacity="1" stroke-width="2" d=" M0,-11 C3.313999891281128,-11 6,-8.314000129699707 6,-5 C6,-5 6,-5 6,-5 C6,-5 6,10 6,10 C6,10.552000045776367 5.552000045776367,11 5,11 C5,11 -5,11 -5,11 C-5.552000045776367,11 -6,10.552000045776367 -6,10 C-6,10 -6,-5 -6,-5 C-6,-5 -5.995999813079834,-5.224999904632568 -5.995999813079834,-5.224999904632568 C-5.877999782562256,-8.434000015258789 -3.23799991607666,-11 0,-11z"></path>
                                                                  </g>
                                                                  <g id="l_d_1570" opacity="1" transform="matrix(1,0,0,1,33,47)">
                                                                     <path id="l_d_1571" stroke-linecap="butt" stroke-linejoin="miter" fill-opacity="0" stroke-miterlimit="4" stroke="rgb(34,34,34)" stroke-opacity="1" stroke-width="2" d=" M-2,0 C-2,0 2,0 2,0 C2,0 -2,0 -2,0z"></path>
                                                                  </g>
                                                                  <g id="l_d_1572" opacity="1" transform="matrix(1,0,0,1,40,31)">
                                                                     <path id="l_d_1573" stroke-linecap="butt" stroke-linejoin="miter" fill-opacity="0" stroke-miterlimit="4" stroke="rgb(34,34,34)" stroke-opacity="1" stroke-width="2" d=" M0,-2 C0,-2 0,2 0,2 C0,2 0,-2 0,-2z"></path>
                                                                  </g>
                                                                  <g id="l_d_1574" opacity="1" transform="matrix(1,0,0,1,38.5,40.5)">
                                                                     <path id="l_d_1575" stroke-linecap="butt" stroke-linejoin="miter" fill-opacity="0" stroke-miterlimit="4" stroke="rgb(34,34,34)" stroke-opacity="1" stroke-width="2" d=" M8.5,-11.5 C8.5,-11.5 1.5,-11.5 1.5,-11.5 C-4.0229997634887695,-11.5 -8.5,-7.0229997634887695 -8.5,-1.5 C-8.5,-1.5 -8.5,11.5 -8.5,11.5"></path>
                                                                  </g>
                                                                  <g id="l_d_1576" opacity="1" transform="matrix(1,0,0,1,42.5,27)">
                                                                     <path id="l_d_1577" stroke-linecap="butt" stroke-linejoin="miter" fill-opacity="0" stroke-miterlimit="4" stroke="rgb(34,34,34)" stroke-opacity="1" stroke-width="2" d=" M-2.5,2 C-2.5,2 2.5,-2 2.5,-2 C2.5,-2 -2.5,2 -2.5,2z"></path>
                                                                  </g>
                                                                  <g id="l_d_1578" opacity="1" transform="matrix(1,0,0,1,40,29)">
                                                                     <path id="l_d_1579" fill="rgb(255,255,255)" fill-opacity="1" d=" M0,2 C1.1050000190734863,2 2,1.1050000190734863 2,0 C2,-1.1050000190734863 1.1050000190734863,-2 0,-2 C-1.1050000190734863,-2 -2,-1.1050000190734863 -2,0 C-2,1.1050000190734863 -1.1050000190734863,2 0,2z"></path>
                                                                     <path id="l_d_1580" stroke-linecap="butt" stroke-linejoin="miter" fill-opacity="0" stroke-miterlimit="4" stroke="rgb(34,34,34)" stroke-opacity="1" stroke-width="2" d=" M0,2 C1.1050000190734863,2 2,1.1050000190734863 2,0 C2,-1.1050000190734863 1.1050000190734863,-2 0,-2 C-1.1050000190734863,-2 -2,-1.1050000190734863 -2,0 C-2,1.1050000190734863 -1.1050000190734863,2 0,2z"></path>
                                                                  </g>
                                                               </g>
                                                               <g id="l_d_1558" style="display: none;">
                                                                  <g id="l_d_1562">
                                                                     <path id="l_d_1563" stroke-linecap="butt" stroke-linejoin="miter" fill-opacity="0" stroke-miterlimit="4"></path>
                                                                  </g>
                                                               </g>
                                                               <g id="l_d_1552" style="display: none;">
                                                                  <g id="l_d_1556">
                                                                     <path id="l_d_1557" stroke-linecap="butt" stroke-linejoin="miter" fill-opacity="0" stroke-miterlimit="4"></path>
                                                                  </g>
                                                               </g>
                                                               <g id="l_d_1546" style="display: none;">
                                                                  <g id="l_d_1550">
                                                                     <path id="l_d_1551" stroke-linecap="butt" stroke-linejoin="miter" fill-opacity="0" stroke-miterlimit="4"></path>
                                                                  </g>
                                                               </g>
                                                            </g>
                                                         </svg>
