<svg id="l_d_5" xmlns="http://www.w3.org/2000/svg" xmlns:xlink="http://www.w3.org/1999/xlink" viewBox="0 0 45 45" width="45" height="45" preserveAspectRatio="xMidYMid meet" style="width: 100%; height: 100%; transform: translate3d(0px, 0px, 0px); content-visibility: visible;">
                                                            <defs id="l_d_6">
                                                               <clipPath id="__lottie_element_2">
                                                                  <rect id="l_d_9" width="45" height="45" x="0" y="0"></rect>
                                                               </clipPath>
                                                               <clipPath id="__lottie_element_4">
                                                                  <path id="l_d_12" fill="#ffffff" clip-rule="nonzero"></path>
                                                                  <path id="l_d_13" fill="#ffffff" clip-rule="nonzero"></path>
                                                               </clipPath>
                                                               <clipPath id="__lottie_element_7">
                                                                  <path id="l_d_20" fill="#ffffff" clip-rule="nonzero"></path>
                                                                  <path id="l_d_21" fill="#ffffff" clip-rule="nonzero"></path>
                                                               </clipPath>
                                                               <clipPath id="__lottie_element_10">
                                                                  <path id="l_d_28" fill="#ffffff" clip-rule="nonzero"></path>
                                                                  <path id="l_d_29" fill="#ffffff" clip-rule="nonzero"></path>
                                                               </clipPath>
                                                               <clipPath id="__lottie_element_13">
                                                                  <path id="l_d_36" fill="#ffffff" clip-rule="nonzero"></path>
                                                                  <path id="l_d_37" fill="#ffffff" clip-rule="nonzero"></path>
                                                               </clipPath>
                                                               <clipPath id="__lottie_element_16">
                                                                  <path id="l_d_44" fill="#ffffff" clip-rule="nonzero"></path>
                                                                  <path id="l_d_45" fill="#ffffff" clip-rule="nonzero"></path>
                                                               </clipPath>
                                                               <clipPath id="__lottie_element_19">
                                                                  <path id="l_d_52" fill="#ffffff" clip-rule="nonzero"></path>
                                                                  <path id="l_d_53" fill="#ffffff" clip-rule="nonzero"></path>
                                                               </clipPath>
                                                               <clipPath id="__lottie_element_22">
                                                                  <path id="l_d_60" fill="#ffffff" clip-rule="nonzero"></path>
                                                                  <path id="l_d_61" fill="#ffffff" clip-rule="nonzero"></path>
                                                               </clipPath>
                                                            </defs>
                                                            <g id="l_d_7" clip-path="url(#__lottie_element_2)">
                                                               <g id="l_d_84" transform="matrix(1.0000008344650269,0,0,1.0000008344650269,-24.00003433227539,-18.374406814575195)" opacity="1" style="display: block;">
                                                                  <g id="l_d_88" opacity="1" transform="matrix(1,0,0,1,51,50)">
                                                                     <path id="l_d_89" stroke-linecap="butt" stroke-linejoin="miter" fill-opacity="0" stroke-miterlimit="4" stroke="rgb(34,34,34)" stroke-opacity="1" stroke-width="2" d=" M-2,-2 C-2,-2 2,-2 2,-2 C2,-2 2,1 2,1 C2,1.5520000457763672 1.5520000457763672,2 1,2 C1,2 -1,2 -1,2 C-1.5520000457763672,2 -2,1.5520000457763672 -2,1 C-2,1 -2,-2 -2,-2 C-2,-2 -2,-2 -2,-2z"></path>
                                                                  </g>
                                                                  <g id="l_d_90" opacity="1" transform="matrix(1,0,0,1,29,50)">
                                                                     <path id="l_d_91" stroke-linecap="butt" stroke-linejoin="miter" fill-opacity="0" stroke-miterlimit="4" stroke="rgb(34,34,34)" stroke-opacity="1" stroke-width="2" d=" M-2,-2 C-2,-2 2,-2 2,-2 C2,-2 2,1 2,1 C2,1.5520000457763672 1.5520000457763672,2 1,2 C1,2 -1,2 -1,2 C-1.5520000457763672,2 -2,1.5520000457763672 -2,1 C-2,1 -2,-2 -2,-2 C-2,-2 -2,-2 -2,-2z"></path>
                                                                  </g>
                                                               </g>
                                                               <g id="l_d_66" transform="matrix(1.0000008344650269,0,0,1.0000008344650269,-24.00003433227539,-18.374406814575195)" opacity="1" style="display: block;">
                                                                  <g id="l_d_70" opacity="1" transform="matrix(1,0,0,1,40,43)">
                                                                     <path id="l_d_71" stroke-linecap="butt" stroke-linejoin="miter" fill-opacity="0" stroke-miterlimit="4" stroke="rgb(34,34,34)" stroke-opacity="1" stroke-width="2" d=" M-9,-5 C-9,-5 9,-5 9,-5 C11.208999633789062,-5 13,-3.2090001106262207 13,-1 C13,-1 13,4 13,4 C13,4.552000045776367 12.552000045776367,5 12,5 C12,5 -12,5 -12,5 C-12.552000045776367,5 -13,4.552000045776367 -13,4 C-13,4 -13,-1 -13,-1 C-13,-3.2090001106262207 -11.208999633789062,-5 -9,-5z"></path>
                                                                  </g>
                                                                  <g id="l_d_72" opacity="1" transform="matrix(1,0,0,1,49,43)">
                                                                     <path id="l_d_73" fill="rgb(34,34,34)" fill-opacity="1" d=" M0,-1 C0.5519999861717224,-1 1,-0.5519999861717224 1,0 C1,0.5519999861717224 0.5519999861717224,1 0,1 C-0.5519999861717224,1 -1,0.5519999861717224 -1,0 C-1,-0.5519999861717224 -0.5519999861717224,-1 0,-1z"></path>
                                                                  </g>
                                                                  <g id="l_d_74" opacity="1" transform="matrix(1,0,0,1,31,43)">
                                                                     <path id="l_d_75" fill="rgb(34,34,34)" fill-opacity="1" d=" M0,-1 C0.5519999861717224,-1 1,-0.5519999861717224 1,0 C1,0.5519999861717224 0.5519999861717224,1 0,1 C-0.5519999861717224,1 -1,0.5519999861717224 -1,0 C-1,-0.5519999861717224 -0.5519999861717224,-1 0,-1z"></path>
                                                                  </g>
                                                                  <g id="l_d_76" opacity="1" transform="matrix(1,0,0,1,40,34)">
                                                                     <path id="l_d_77" stroke-linecap="butt" stroke-linejoin="miter" fill-opacity="0" stroke-miterlimit="4" stroke="rgb(34,34,34)" stroke-opacity="1" stroke-width="2" d=" M-7.307000160217285,-4 C-7.307000160217285,-4 7.307000160217285,-4 7.307000160217285,-4 C7.723999977111816,-4 8.097000122070312,-3.740999937057495 8.243000030517578,-3.3510000705718994 C8.243000030517578,-3.3510000705718994 11,4 11,4 C11,4 11,4 11,4 C11,4 -11,4 -11,4 C-11,4 -8.243000030517578,-3.3510000705718994 -8.243000030517578,-3.3510000705718994 C-8.097000122070312,-3.740999937057495 -7.723999977111816,-4 -7.307000160217285,-4z"></path>
                                                                  </g>
                                                                  <g id="l_d_78" opacity="1" transform="matrix(1,0,0,1,27.5,36)">
                                                                     <path id="l_d_79" fill="rgb(34,34,34)" fill-opacity="1" d=" M-1.5,-1 C-1.5,-1 1.5,-1 1.5,-1 C1.5,-1 1.5,1 1.5,1 C1.5,1 -1.5,1 -1.5,1 C-1.5,1 -1.5,-1 -1.5,-1z"></path>
                                                                  </g>
                                                                  <g id="l_d_80" opacity="1" transform="matrix(1,0,0,1,52.5,36)">
                                                                     <path id="l_d_81" fill="rgb(34,34,34)" fill-opacity="1" d=" M-1.5,-1 C-1.5,-1 1.5,-1 1.5,-1 C1.5,-1 1.5,1 1.5,1 C1.5,1 -1.5,1 -1.5,1 C-1.5,1 -1.5,-1 -1.5,-1z"></path>
                                                                  </g>
                                                                  <g id="l_d_82" opacity="1" transform="matrix(1,0,0,1,40,43)">
                                                                     <path id="l_d_83" stroke-linecap="butt" stroke-linejoin="miter" fill-opacity="0" stroke-miterlimit="4" stroke="rgb(34,34,34)" stroke-opacity="1" stroke-width="2" d=" M-6,0 C-6,0 6,0 6,0"></path>
                                                                  </g>
                                                               </g>
                                                               <g id="l_d_58" clip-path="url(#__lottie_element_22)" style="display: none;">
                                                                  <g id="l_d_64">
                                                                     <path id="l_d_65"></path>
                                                                  </g>
                                                               </g>
                                                               <g id="l_d_50" clip-path="url(#__lottie_element_19)" style="display: none;">
                                                                  <g id="l_d_56">
                                                                     <path id="l_d_57"></path>
                                                                  </g>
                                                               </g>
                                                               <g id="l_d_42" clip-path="url(#__lottie_element_16)" style="display: none;">
                                                                  <g id="l_d_48">
                                                                     <path id="l_d_49"></path>
                                                                  </g>
                                                               </g>
                                                               <g id="l_d_34" clip-path="url(#__lottie_element_13)" style="display: none;">
                                                                  <g id="l_d_40">
                                                                     <path id="l_d_41"></path>
                                                                  </g>
                                                               </g>
                                                               <g id="l_d_26" clip-path="url(#__lottie_element_10)" style="display: none;">
                                                                  <g id="l_d_32">
                                                                     <path id="l_d_33"></path>
                                                                  </g>
                                                               </g>
                                                               <g id="l_d_18" clip-path="url(#__lottie_element_7)" style="display: none;">
                                                                  <g id="l_d_24">
                                                                     <path id="l_d_25"></path>
                                                                  </g>
                                                               </g>
                                                               <g id="l_d_10" clip-path="url(#__lottie_element_4)" style="display: none;">
                                                                  <g id="l_d_16">
                                                                     <path id="l_d_17"></path>
                                                                  </g>
                                                               </g>
                                                            </g>
                                                         </svg>
