<svg id="l_d_1582" xmlns="http://www.w3.org/2000/svg" xmlns:xlink="http://www.w3.org/1999/xlink" viewBox="0 0 45 45" width="45" height="45" preserveAspectRatio="xMidYMid meet" style="width: 100%; height: 100%; transform: translate3d(0px, 0px, 0px); content-visibility: visible;">
                                                            <defs id="l_d_1583">
                                                               <clipPath id="__lottie_element_657">
                                                                  <rect id="l_d_1586" width="45" height="45" x="0" y="0"></rect>
                                                               </clipPath>
                                                            </defs>
                                                            <g id="l_d_1584" clip-path="url(#__lottie_element_657)">
                                                               <g id="l_d_1598" transform="matrix(1,0,0,1,-24,-17.5)" opacity="1" style="display: block;">
                                                                  <g id="l_d_1602" opacity="1" transform="matrix(1,0,0,1,40,40)"></g>
                                                                  <g id="l_d_1603" opacity="1" transform="matrix(1,0,0,1,40,40)">
                                                                     <path id="l_d_1604" stroke-linecap="butt" stroke-linejoin="miter" fill-opacity="0" stroke-miterlimit="4" stroke="rgb(34,34,34)" stroke-opacity="1" stroke-width="2" d=" M-9,-13 C-9,-13 9,-13 9,-13 C11.208999633789062,-13 13,-11.208999633789062 13,-9 C13,-9 13,9 13,9 C13,11.208999633789062 11.208999633789062,13 9,13 C9,13 -9,13 -9,13 C-11.208999633789062,13 -13,11.208999633789062 -13,9 C-13,9 -13,-9 -13,-9 C-13,-11.208999633789062 -11.208999633789062,-13 -9,-13z"></path>
                                                                  </g>
                                                                  <g id="l_d_1605" opacity="1" transform="matrix(1,0,0,1,0,0)"></g>
                                                                  <g id="l_d_1606" opacity="1" transform="matrix(1,0,0,1,0,0)">
                                                                     <g id="l_d_1607" opacity="1" transform="matrix(1,0,0,1,36.040000915527344,36.040000915527344)">
                                                                        <path id="l_d_1608" fill="rgb(34,34,34)" fill-opacity="1" d=" M-2.9600000381469727,2.9600000381469727 C-2.9600000381469727,2.9600000381469727 -0.9390000104904175,2.9600000381469727 -0.9390000104904175,2.9600000381469727 C-0.5400000214576721,1.003999948501587 1.003999948501587,-0.5400000214576721 2.9600000381469727,-0.9390000104904175 C2.9600000381469727,-0.9390000104904175 2.9600000381469727,-2.9600000381469727 2.9600000381469727,-2.9600000381469727 C-0.0989999994635582,-2.5190000534057617 -2.5190000534057617,-0.0989999994635582 -2.9600000381469727,2.9600000381469727z"></path>
                                                                     </g>
                                                                     <g id="l_d_1609" opacity="1" transform="matrix(1,0,0,1,36.040000915527344,43.959999084472656)">
                                                                        <path id="l_d_1610" fill="rgb(34,34,34)" fill-opacity="1" d=" M2.9600000381469727,2.9600000381469727 C2.9600000381469727,2.9600000381469727 2.9600000381469727,0.9390000104904175 2.9600000381469727,0.9390000104904175 C1.003999948501587,0.5400000214576721 -0.5400000214576721,-1.003999948501587 -0.9390000104904175,-2.9600000381469727 C-0.9390000104904175,-2.9600000381469727 -2.9600000381469727,-2.9600000381469727 -2.9600000381469727,-2.9600000381469727 C-2.5190000534057617,0.0989999994635582 -0.0989999994635582,2.5190000534057617 2.9600000381469727,2.9600000381469727z"></path>
                                                                     </g>
                                                                     <g id="l_d_1611" opacity="1" transform="matrix(1,0,0,1,43.959999084472656,36.040000915527344)">
                                                                        <path id="l_d_1612" fill="rgb(34,34,34)" fill-opacity="1" d=" M-2.9600000381469727,-2.9600000381469727 C-2.9600000381469727,-2.9600000381469727 -2.9600000381469727,-0.9390000104904175 -2.9600000381469727,-0.9390000104904175 C-1.003999948501587,-0.5400000214576721 0.5400000214576721,1.003999948501587 0.9390000104904175,2.9600000381469727 C0.9390000104904175,2.9600000381469727 2.9600000381469727,2.9600000381469727 2.9600000381469727,2.9600000381469727 C2.5190000534057617,-0.0989999994635582 0.0989999994635582,-2.5190000534057617 -2.9600000381469727,-2.9600000381469727z"></path>
                                                                     </g>
                                                                     <g id="l_d_1613" opacity="1" transform="matrix(1,0,0,1,43.959999084472656,43.959999084472656)">
                                                                        <path id="l_d_1614" fill="rgb(34,34,34)" fill-opacity="1" d=" M2.9600000381469727,-2.9600000381469727 C2.9600000381469727,-2.9600000381469727 0.9390000104904175,-2.9600000381469727 0.9390000104904175,-2.9600000381469727 C0.5400000214576721,-1.003999948501587 -1.003999948501587,0.5400000214576721 -2.9600000381469727,0.9390000104904175 C-2.9600000381469727,0.9390000104904175 -2.9600000381469727,2.9600000381469727 -2.9600000381469727,2.9600000381469727 C0.0989999994635582,2.5190000534057617 2.5190000534057617,0.0989999994635582 2.9600000381469727,-2.9600000381469727z"></path>
                                                                     </g>
                                                                  </g>
                                                                  <g id="l_d_1615" opacity="1" transform="matrix(1,0,0,1,40,40)">
                                                                     <path id="l_d_1616" stroke-linecap="butt" stroke-linejoin="miter" fill-opacity="0" stroke-miterlimit="4" stroke="rgb(34,34,34)" stroke-opacity="1" stroke-width="2" d=" M0,-2 C1.1050000190734863,-2 2,-1.1050000190734863 2,0 C2,1.1050000190734863 1.1050000190734863,2 0,2 C-1.1050000190734863,2 -2,1.1050000190734863 -2,0 C-2,-1.1050000190734863 -1.1050000190734863,-2 0,-2z"></path>
                                                                  </g>
                                                               </g>
                                                               <g id="l_d_1592" transform="matrix(1,0,0,1,-24,-17.5)" opacity="1" style="display: block;">
                                                                  <g id="l_d_1596" opacity="1" transform="matrix(1,0,0,1,47,33)">
                                                                     <path id="l_d_1597" fill="rgb(0,0,0)" fill-opacity="1" d=" M0,-1 C0.5519999861717224,-1 1,-0.5519999861717224 1,0 C1,0.5519999861717224 0.5519999861717224,1 0,1 C-0.5519999861717224,1 -1,0.5519999861717224 -1,0 C-1,-0.5519999861717224 -0.5519999861717224,-1 0,-1z"></path>
                                                                  </g>
                                                               </g>
                                                               <g id="l_d_1587" style="display: none;">
                                                                  <rect id="l_d_1591" width="120" height="120" fill="#ffffff"></rect>
                                                               </g>
                                                            </g>
                                                         </svg>
